<?xml version="1.0" standalone="no"?>
<!DOCTYPE svg PUBLIC "-//W3C//DTD SVG 1.1//EN" "http://www.w3.org/Graphics/SVG/1.1/DTD/svg11.dtd" >
<svg xmlns="http://www.w3.org/2000/svg" xmlns:xlink="http://www.w3.org/1999/xlink" version="1.1">
<metadata>
Created by FontForge 20170910 at Sat Aug 19 06:46:53 2006
 By Jimmy Wärting
Copr. 1998 Gareth Hague
</metadata>
<defs>
<font id="Harbour-Bold" horiz-adv-x="410" >
  <font-face 
    font-family="Harbour"
    font-weight="400"
    font-stretch="normal"
    units-per-em="1000"
    panose-1="2 0 5 3 7 0 0 2 0 4"
    ascent="800"
    descent="-200"
    x-height="510"
    cap-height="800"
    bbox="-150 -367 1257 1071"
    underline-thickness="20"
    underline-position="-133"
    unicode-range="U+0020-FB02"
  />
<missing-glyph horiz-adv-x="1000" 
 />
    <glyph glyph-name=".notdef" horiz-adv-x="1000" 
 />
    <glyph glyph-name=".null" horiz-adv-x="0" 
 />
    <glyph glyph-name="nonmarkingreturn" horiz-adv-x="250" 
 />
    <glyph glyph-name="space" unicode=" " horiz-adv-x="250" 
 />
    <glyph glyph-name="Scaron" unicode="&#x160;" horiz-adv-x="659" 
d="M416 591l-197 115q-6 -21 -6 -37q0 -23 12.5 -43t31.5 -37.5t40 -32t38 -25.5q43 -28 90 -58.5t87 -67.5t66 -83.5t26 -105.5q0 -53 -22.5 -97t-60 -75t-86.5 -48t-103 -17q-76 0 -155 23t-157 77l201 120l208 -138q12 20 16.5 35.5t4.5 30.5q0 22 -12 43t-29.5 40
t-38 35t-36.5 28q-39 28 -83.5 60t-83 69.5t-64 82t-25.5 97.5q0 52 19.5 95t55 73.5t84 47.5t105.5 17q78 0 140 -28.5t128 -78.5zM495 983l-159 -85l-159 85l38 67l121 -65l121 65l38 -67v0z" />
    <glyph glyph-name="scaron" unicode="&#x161;" horiz-adv-x="568" 
d="M518 150q0 -48 -22.5 -81t-56.5 -53t-73.5 -28.5t-73.5 -8.5q-72 0 -140.5 14.5t-131.5 58.5l118 92l263 -87q-5 30 -32 52.5t-63.5 42.5t-77.5 40t-76 44.5t-58 56t-23 74.5q0 49 20.5 84.5t53.5 58t75 33t86 10.5q53 0 109.5 -16t100.5 -51l-123 -96l-226 74
q6 -30 35 -52.5t68 -42.5t82.5 -40t80.5 -45t61 -57t24 -77zM439 777l-159 -85l-159 85l38 67l121 -65l121 65l38 -67v0z" />
    <glyph glyph-name="Yacute" unicode="&#xdd;" horiz-adv-x="787" 
d="M777 800l-270 -453v-236l85 -111h-370l84 111v209l-204 334l-82 75l193 116l241 -396l143 241l-84 110h264v0zM548 999l-251 -113l-34 69l251 114l34 -70v0z" />
    <glyph glyph-name="yacute" unicode="&#xfd;" horiz-adv-x="629" 
d="M629 510l-308 -699l93 -110h-247l104 233l-184 413l-77 66l192 148l174 -388l100 227l-93 110h246v0zM458 775l-251 -113l-34 69l251 114l34 -70v0z" />
    <glyph glyph-name="Thorn" unicode="&#xde;" horiz-adv-x="695" 
d="M640 386q0 -54 -17 -104t-53 -88.5t-91.5 -61t-131.5 -22.5h-16t-16 1l85 -111h-370l84 111v578l-84 111h370l-85 -111v-108l173 104q38 -29 66.5 -64.5t47.5 -74.5t28.5 -79.5t9.5 -80.5zM506 270q0 41 -15.5 79t-42 71t-61 59t-72.5 43v-234l179 -87q12 34 12 69z" />
    <glyph glyph-name="thorn" unicode="&#xfe;" horiz-adv-x="676" 
d="M621 263q0 -54 -17 -104t-53 -88.5t-91.5 -61t-131.5 -22.5h-16t-16 1v-133l64 -65l-265 -157v1046l-65 65l266 157v-443l173 104q38 -29 66.5 -64.5t47.5 -74.5t28.5 -79.5t9.5 -80.5zM487 147q0 41 -15.5 79t-42 71t-61 59t-72.5 43v-234l179 -87q12 34 12 69z" />
    <glyph glyph-name="Zcaron" unicode="&#x17d;" horiz-adv-x="643" 
d="M623 800l-332 -729l300 123v-194h-551l331 729l-299 -123v194h551v0zM495 983l-159 -85l-159 85l38 67l121 -65l121 65l38 -67v0z" />
    <glyph glyph-name="zcaron" unicode="&#x17e;" horiz-adv-x="616" 
d="M576 510l-287 -455l254 141v-196h-503l289 456l-239 -135v189h486v0zM482 777l-159 -85l-159 85l38 67l121 -65l121 65l38 -67v0z" />
    <glyph glyph-name="onehalf" unicode="&#xbd;" horiz-adv-x="952" 
d="M63 324l50 67v306l-64 -38l-29 48l214 127v-443l51 -67h-222zM218 -14l-67 48l507 776l67 -48zM882 334q0 -23 -7.5 -45t-20.5 -40l-145 -207l162 75v-117h-326l136 193q-58 31 -85.5 68t-27.5 81q0 29 10.5 55.5t30.5 46.5t49.5 32t67.5 12q33 0 61.5 -12.5t49.5 -33.5
t33 -49t12 -59zM647 427q-7 -18 -7 -38q0 -34 30 -62t70 -49l52 76z" />
    <glyph glyph-name="onequarter" unicode="&#xbc;" horiz-adv-x="910" 
d="M285 324h-222l50 67v306l-64 -38l-29 48l214 127v-443zM725 762l-507 -776l-67 48l507 776zM890 125h-55v-58l51 -67h-222l51 67v58h-197l140 383l116 -68l-40 -39l-80 -218h61v70h120v-70h55v-58z" />
    <glyph glyph-name="onesuperior" unicode="&#xb9;" horiz-adv-x="315" 
d="M285 324h-222l50 67v306l-64 -38l-29 48l214 127v-443l51 -67v0z" />
    <glyph glyph-name="threequarters" unicode="&#xbe;" horiz-adv-x="940" 
d="M248 -14l-67 48l507 776l67 -48zM865 125v-58l51 -67h-222l51 67v58h-197l140 383l116 -68l-40 -39l-80 -218h61v70h120v-70h55v-58h-55zM240 617q54 -30 78.5 -70t24.5 -82q0 -30 -12 -57.5t-34 -49t-53.5 -34t-69.5 -12.5q-27 0 -50.5 6.5t-43.5 16t-35 20t-25 19.5
l110 65l111 -70q4 7 8 18t4 25q0 30 -18 54.5t-45 43.5t-57.5 32t-55.5 20l123 195l-154 -74v117h310z" />
    <glyph glyph-name="threesuperior" unicode="&#xb3;" horiz-adv-x="396" 
d="M240 617q54 -30 78.5 -70t24.5 -82q0 -30 -12 -57.5t-34 -49t-53.5 -34t-69.5 -12.5q-27 0 -50.5 6.5t-43.5 16t-35 20t-25 19.5l110 65l111 -70q4 7 8 18t4 25q0 30 -18 54.5t-45 43.5t-57.5 32t-55.5 20l123 195l-154 -74v117h310z" />
    <glyph glyph-name="twosuperior" unicode="&#xb2;" horiz-adv-x="457" 
d="M387 659q0 -23 -7.5 -45t-20.5 -40l-145 -207l162 75v-117h-326l136 193q-58 31 -85.5 68t-27.5 81q0 29 10.5 55.5t30.5 46.5t49.5 32t67.5 12q33 0 61.5 -12.5t49.5 -33.5t33 -49t12 -59zM152 752q-7 -18 -7 -38q0 -34 30 -62t70 -49l52 76z" />
    <glyph glyph-name="brokenbar" unicode="&#xa6;" horiz-adv-x="257" 
d="M177 329l-97 -58v529h97v-471zM177 -298h-97v471l97 58v-529z" />
    <glyph glyph-name="minus" unicode="&#x2212;" horiz-adv-x="562" 
d="M492 288h-422v91h422v-91v0z" />
    <glyph glyph-name="multiply" unicode="&#xd7;" horiz-adv-x="502" 
d="M432 216l-64 -64l-117 117l-117 -117l-64 64l117 118l-117 117l64 64l117 -117l117 117l64 -64l-117 -117l117 -118v0z" />
    <glyph glyph-name="lslash" unicode="&#x142;" 
d="M390 0h-370l84 111v91l-65 -37v210l65 38v266l-64 64l265 158v-372l65 37v-210l-65 -38v-207l85 -111v0z" />
    <glyph glyph-name="exclam" unicode="!" horiz-adv-x="301" 
d="M251 319h-201v481h201v-481zM251 0h-201v195h201v-195z" />
    <glyph glyph-name="quotedbl" unicode="&#x22;" horiz-adv-x="433" 
d="M356 549h-97v251h97v-251zM174 549h-97v251h97v-251z" />
    <glyph glyph-name="numbersign" unicode="#" horiz-adv-x="641" 
d="M591 308h-124l-17 -95h108v-80h-123l-19 -106l-92 -54l28 160h-108l-19 -106l-92 -54l28 160h-111v80h125l17 95h-111v80h126l19 105l92 55l-29 -160h109l19 105l92 55l-29 -160h111v-80zM383 308h-107l-17 -95h107z" />
    <glyph glyph-name="dollar" unicode="$" horiz-adv-x="659" 
d="M416 591l-197 115q-6 -21 -6 -37q0 -23 12.5 -43t31.5 -37.5t40 -32t38 -25.5q43 -28 90 -58.5t87 -67.5t66 -83.5t26 -105.5q0 -48 -18.5 -88.5t-50 -71t-74 -50t-89.5 -25.5v-192h-97v193q-63 7 -127 30t-128 67l201 120l208 -138q12 20 16.5 35.5t4.5 30.5
q0 22 -12 43t-29.5 40t-38 35t-36.5 28q-39 28 -83.5 60t-83 69.5t-64 82t-25.5 97.5q0 44 14.5 81.5t40.5 67t62 49.5t80 29v191h97v-186q67 -5 122.5 -33t115.5 -73z" />
    <glyph glyph-name="percent" horiz-adv-x="878" 
d="M417 605q0 -42 -14 -80t-38 -66.5t-57 -45.5t-72 -17t-72 17t-57 45.5t-38 66.5t-14 80t14 79.5t38 66t57 45t72 16.5t72 -16.5t57 -45t38 -66t14 -79.5zM823 195q0 -42 -14 -79.5t-38 -66t-57 -45.5t-72 -17t-72 17t-57 45.5t-38 66t-14 79.5t14 79.5t38 66t57 45.5
t72 17t72 -17t57 -45.5t38 -66t14 -79.5zM216 -14l-68 48l508 776l67 -48zM313 536q0 35 -9 70t-26 63.5t-42.5 46.5t-59.5 20q-5 -18 -8.5 -38.5t-3.5 -43.5q0 -34 8 -66.5t25 -58t43.5 -42t63.5 -17.5q9 28 9 66zM719 126q0 35 -9 70t-26 63.5t-42.5 47t-59.5 20.5
q-12 -38 -12 -82q0 -35 8 -67.5t25 -58t43.5 -41.5t63.5 -17q9 28 9 65z" />
    <glyph glyph-name="ampersand" unicode="&#x26;" horiz-adv-x="748" 
d="M535 -26l-53 57q-73 -44 -161 -44q-51 0 -101 16.5t-89.5 47t-64 74.5t-24.5 99q0 60 24.5 106.5t71.5 79.5q-16 18 -29.5 36t-23.5 37.5t-15.5 42t-5.5 50.5q0 60 24 104.5t63.5 74.5t90.5 45t104 15q78 0 140 -28.5t128 -78.5l-194 -117l-197 115q-6 -20 -6 -40
q0 -64 50 -118l349 -384l107 -77zM196 347q-2 -5 -3 -15t-1 -24q0 -34 14.5 -73.5t45 -74t77 -58t110.5 -24.5z" />
    <glyph glyph-name="quotesingle" unicode="'" horiz-adv-x="251" 
d="M174 549h-97v251h97v-251v0z" />
    <glyph glyph-name="parenleft" unicode="(" 
d="M289 -105q-52 56 -92.5 113t-68.5 118.5t-43 129.5t-15 145t15 144.5t43 129t68.5 118.5t92.5 114l71 -64q-45 -50 -81 -100t-61 -103.5t-38.5 -112.5t-13.5 -126q0 -69 13 -127.5t38 -112t61 -103t82 -100.5z" />
    <glyph glyph-name="parenright" unicode=")" 
d="M340 401q0 -77 -15 -144.5t-43 -129t-68.5 -118.5t-92.5 -114l-71 64q45 50 81 100t61 103.5t38.5 112t13.5 126.5q0 69 -13 127.5t-38 112t-61 103t-82 100.5l71 63q52 -56 92.5 -113.5t68.5 -119t43 -129t15 -144.5z" />
    <glyph glyph-name="asterisk" unicode="*" horiz-adv-x="644" 
d="M594 524l-229 15l194 -121l-180 -130l-57 220l-57 -220l-180 130l194 121l-229 -15l69 210l177 -146l-85 212h222l-85 -212l177 146l69 -210v0z" />
    <glyph glyph-name="plus" unicode="+" horiz-adv-x="562" 
d="M492 288h-166l1 -165l-92 -1l1 166h-166v91h166l-1 165l92 1l-1 -166h166v-91v0z" />
    <glyph glyph-name="comma" unicode="," horiz-adv-x="308" 
d="M288 95l-136 -255l-152 112l136 255l152 -112v0z" />
    <glyph glyph-name="hyphen" unicode="-" horiz-adv-x="368" 
d="M318 292l-268 -168v208l268 168v-208v0z" />
    <glyph glyph-name="period" unicode="." horiz-adv-x="301" 
d="M251 0h-201v195h201v-195v0z" />
    <glyph glyph-name="slash" unicode="/" horiz-adv-x="531" 
d="M531 762l-444 -808l-67 48l444 808l67 -48v0z" />
    <glyph glyph-name="zero" unicode="0" horiz-adv-x="808" 
d="M748 400q0 -84 -26.5 -159t-73 -131.5t-109.5 -89.5t-135 -33t-135 33t-109.5 89.5t-73 131.5t-26.5 159t26.5 159t73 131.5t109.5 89.5t135 33t135 -33t109.5 -89.5t73 -131.5t26.5 -159zM586 295q0 77 -21 149t-61 127t-98.5 88.5t-133.5 33.5q-14 -42 -23.5 -95.5
t-9.5 -97.5q0 -77 21 -148.5t61 -127t98.5 -88.5t133.5 -34q14 42 23.5 95.5t9.5 97.5z" />
    <glyph glyph-name="one" unicode="1" horiz-adv-x="491" 
d="M461 0h-370l84 111v511l-107 -64l-48 80l356 212v-739l85 -111v0z" />
    <glyph glyph-name="two" unicode="2" horiz-adv-x="651" 
d="M581 557q0 -39 -12.5 -74.5t-33.5 -66.5l-241 -346l269 125v-195h-543l226 322q-96 52 -142 114t-46 135q0 48 17.5 92t51.5 77t83 53t112 20q55 0 102.5 -20.5t82.5 -55t54.5 -81.5t19.5 -99zM190 712q-6 -17 -8.5 -33t-2.5 -31q0 -28 13.5 -53.5t36 -49t53 -44
t63.5 -37.5l87 126z" />
    <glyph glyph-name="three" unicode="3" horiz-adv-x="620" 
d="M387 495q90 -51 130.5 -117.5t40.5 -135.5q0 -50 -20 -96.5t-57 -81.5t-89 -56t-116 -21q-44 0 -83 10.5t-72 26.5t-59 33.5t-42 32.5l184 109l185 -117q6 11 12.5 29t6.5 42q0 51 -30 92t-74.5 72.5t-95.5 53t-93 33.5l205 324l-256 -123v195h516z" />
    <glyph glyph-name="four" unicode="4" horiz-adv-x="660" 
d="M640 209h-91v-98l85 -111h-370l84 111v98h-328l234 638l192 -114l-66 -64l-134 -364h102v116h201v-116h91v-96v0z" />
    <glyph glyph-name="five" unicode="5" horiz-adv-x="609" 
d="M559 236q0 -50 -21 -95t-58.5 -79.5t-89.5 -54.5t-114 -20q-44 0 -83 10.5t-72 26.5t-59 33.5t-42 32.5l184 109l185 -117q6 11 12.5 29t6.5 42q0 55 -34 99t-84.5 76.5t-108 53.5t-104.5 29v389h437v-196l-236 126v-186q76 -27 129.5 -63t87 -76.5t49 -83.5t15.5 -85z
" />
    <glyph glyph-name="six" unicode="6" horiz-adv-x="639" 
d="M589 230q0 -48 -19.5 -92t-54.5 -77.5t-84.5 -53.5t-110.5 -20q-57 0 -106.5 20t-86 55t-57 82.5t-20.5 102.5q0 31 8 64.5t21 61.5l222 476l184 -110l-73 -67l-71 -152q131 -55 189.5 -128.5t58.5 -161.5zM472 155q0 31 -15 60t-42 55.5t-64 49.5t-81 43l-63 -137
l254 -138q11 38 11 67z" />
    <glyph glyph-name="seven" unicode="7" horiz-adv-x="592" 
d="M572 800l-242 -689l85 -111h-365l84 111l215 619l-298 -124v194h521v0z" />
    <glyph glyph-name="eight" unicode="8" horiz-adv-x="679" 
d="M619 223q0 -50 -22.5 -93t-60.5 -74.5t-89 -50t-108 -18.5t-107.5 18.5t-89 50.5t-60.5 75t-22 93q0 28 6 56t19.5 53.5t33.5 47.5t49 38q-11 9 -25.5 24.5t-27.5 36.5t-22 46t-9 53q0 49 20.5 91.5t55.5 74t82 50t101 18.5t102 -18.5t84 -50t57 -74t21 -91.5
q0 -51 -23.5 -97t-62.5 -78q44 -32 71 -76.5t27 -104.5zM468 485q0 41 -24.5 78.5t-60.5 68.5t-78.5 53t-78.5 31q-9 -24 -9 -48q0 -50 24 -85t60.5 -61t79 -45t79.5 -37q8 24 8 45zM485 114q0 43 -29.5 81.5t-71 70.5t-87 57.5t-77.5 43.5q-9 -26 -9 -48q0 -44 25.5 -84
t64.5 -72.5t86.5 -55.5t91.5 -33q6 21 6 40z" />
    <glyph glyph-name="nine" unicode="9" horiz-adv-x="639" 
d="M589 552q0 -31 -8 -64.5t-21 -61.5l-222 -476l-184 110l73 67l71 152q-131 55 -189.5 128t-58.5 162q0 48 19 92t54.5 77.5t85 53.5t110.5 20q57 0 106.5 -20t86 -55t57 -82.5t20.5 -102.5zM178 711q-11 -38 -11 -67q0 -31 15 -60t42 -55.5t64 -50t81 -42.5l63 137z" />
    <glyph glyph-name="colon" unicode=":" horiz-adv-x="301" 
d="M251 0h-201v195h201v-195zM251 315h-201v195h201v-195z" />
    <glyph glyph-name="semicolon" unicode=";" horiz-adv-x="298" 
d="M272 315h-201v195h201v-195zM288 94l-136 -251l-152 110l136 251z" />
    <glyph glyph-name="less" unicode="&#x3c;" horiz-adv-x="392" 
d="M346 183l-68 -68l-232 229l232 229l68 -67l-163 -162l163 -161v0z" />
    <glyph glyph-name="equal" unicode="=" horiz-adv-x="472" 
d="M405 385h-338v95h338v-95zM405 206h-338v95h338v-95z" />
    <glyph glyph-name="greater" unicode="&#x3e;" horiz-adv-x="392" 
d="M346 344l-232 -229l-68 67l163 162l-163 161l68 68l232 -229v0z" />
    <glyph glyph-name="question" unicode="?" horiz-adv-x="621" 
d="M571 585q0 -38 -14 -76.5t-35 -68.5l-170 -245h48v-195h-201v195h125l-160 95l77 61q-37 18 -71.5 40.5t-61 51t-42.5 64.5t-16 82t19.5 88.5t55 74.5t84 51.5t106.5 19.5q55 0 102 -18.5t81 -51t53.5 -76t19.5 -92.5zM175 720q-9 -29 -9 -52q0 -28 12.5 -51.5t32.5 -43
t45 -35.5t50 -29l29 -16l75 108z" />
    <glyph glyph-name="at" unicode="@" horiz-adv-x="839" 
d="M792 390q0 -105 -35 -182.5t-90.5 -128.5t-123.5 -75.5t-134 -24.5q-89 0 -156.5 29.5t-113 76.5t-69 105t-23.5 115q0 43 14 82.5t43 70t72 48.5t102 18q64 0 127.5 -21.5t112.5 -57.5v-175l-159 -127q53 -26 107.5 -39.5t105.5 -14.5q48 120 48 224q0 82 -30 150.5
t-89 118t-147 76.5t-204 27q74 64 138 91t131 27q79 0 147 -32t118.5 -88t79 -131t28.5 -162zM321 350l-171 78q1 -42 14 -80t36 -71t54 -61.5t67 -50.5v185z" />
    <glyph glyph-name="A" unicode="A" horiz-adv-x="870" 
d="M870 0h-382l85 111l-51 107h-278l-51 -107l83 -111h-276l85 111l350 736l350 -735zM476 315l-93 195l-93 -195h186z" />
    <glyph glyph-name="B" unicode="B" horiz-adv-x="754" 
d="M694 227q0 -52 -23 -94t-60.5 -71.5t-84.5 -45.5t-96 -16h-400l84 111v578l-84 111h383q51 0 96.5 -16.5t79 -45.5t53.5 -67.5t20 -83.5q0 -54 -26.5 -96t-68.5 -71q55 -29 91 -78t36 -115zM462 561q0 23 -9.5 46t-28 42.5t-46 34t-63.5 21.5v-268q38 3 65.5 14.5
t45.5 28.5t27 38t9 43zM499 158q0 36 -11.5 69t-34.5 60t-57.5 46t-80.5 27v-213l169 -71q7 20 11 41t4 41z" />
    <glyph glyph-name="C" unicode="C" horiz-adv-x="761" 
d="M545 552q-41 41 -82 68t-78 43t-66.5 23t-46.5 7q-34 -84 -34 -167q0 -86 34 -162t95.5 -133t147 -90.5t187.5 -34.5q-74 -64 -138 -91t-131 -27q-79 0 -148 32t-120 88t-80.5 131t-29.5 162t29.5 162t81 130.5t120.5 87t149 31.5q86 0 160.5 -38t135.5 -112z" />
    <glyph glyph-name="D" unicode="D" horiz-adv-x="797" 
d="M742 384q0 -73 -25 -142t-75 -123t-125 -86.5t-175 -32.5h-312l84 111v578l-84 111h302q98 0 174.5 -36.5t129 -95.5t79.5 -133.5t27 -150.5zM561 314q0 59 -16 114.5t-47.5 102t-77 81t-105.5 52.5v-485l192 -80q28 52 41 106.5t13 108.5z" />
    <glyph glyph-name="E" unicode="E" horiz-adv-x="633" 
d="M583 0h-553l84 111v578l-84 111h553v-194l-268 125v-252h199v-176l-199 107v-341l268 125v-194v0z" />
    <glyph glyph-name="F" unicode="F" horiz-adv-x="633" 
d="M583 606l-268 125v-252h199v-176l-199 107v-299l85 -111h-370l84 111v578l-84 111h553v-194v0z" />
    <glyph glyph-name="G" unicode="G" horiz-adv-x="837" 
d="M807 117q-76 -61 -168 -95.5t-188 -34.5q-87 0 -160 32t-125.5 88t-81.5 131.5t-29 162.5q0 80 27.5 154.5t77.5 131.5t120 91t155 34q90 0 164 -40t132 -110l-184 -110q-41 41 -83 68t-79 43t-66.5 23t-46.5 7q-34 -88 -34 -178q0 -69 18.5 -138t54.5 -128.5
t88.5 -105.5t120.5 -71v316h201v-220l86 -51v0z" />
    <glyph glyph-name="H" unicode="H" horiz-adv-x="846" 
d="M816 0h-370l84 111v260h-215v-260l85 -111h-370l84 111v578l-84 111h370l-85 -111v-222h215v222l-84 111h370l-85 -111v-578l85 -111v0z" />
    <glyph glyph-name="I" unicode="I" horiz-adv-x="430" 
d="M400 0h-370l84 111v578l-84 111h370l-85 -111v-578l85 -111v0z" />
    <glyph glyph-name="J" unicode="J" horiz-adv-x="650" 
d="M535 689v-477q0 -49 -19.5 -91.5t-54 -74t-81.5 -49.5t-103 -18q-39 0 -73.5 6t-67 19t-66 32.5t-70.5 46.5l183 111l151 -109v604l-84 111h370z" />
    <glyph glyph-name="K" unicode="K" horiz-adv-x="816" 
d="M786 92l-198 -119l-273 361v-223l85 -111h-370l84 111v578l-84 111h370l-85 -111v-295l253 296l-83 110h296l-306 -360l204 -271l107 -77v0z" />
    <glyph glyph-name="L" unicode="L" horiz-adv-x="623" 
d="M583 0h-553l84 111v578l-84 111h370l-85 -111v-620l268 125v-194v0z" />
    <glyph glyph-name="M" unicode="M" horiz-adv-x="994" 
d="M964 0h-370l84 111v422l-230 -365l-236 370v-427l85 -111h-267l84 111v561l-63 63l191 114l268 -425l167 266l-83 110h370l-85 -111v-578l85 -111v0z" />
    <glyph glyph-name="N" unicode="N" horiz-adv-x="832" 
d="M802 800l-84 -111v-537l83 -60l-198 -119l-391 571v-433l85 -111h-267l84 111v577l-76 112h237l345 -505v394l-85 111h267v0z" />
    <glyph glyph-name="O" unicode="O" horiz-adv-x="889" 
d="M834 401q0 -89 -30.5 -164.5t-83 -131t-123.5 -87t-152 -31.5t-152.5 29.5t-124 82.5t-83 127t-30.5 163t30.5 166.5t83 134.5t123.5 90t153 33q81 0 152 -31t123.5 -86t83 -130.5t30.5 -164.5zM650 275q0 79 -25.5 154t-74 133.5t-119 94.5t-159.5 36q-34 -81 -34 -172
q0 -79 25.5 -154.5t74 -134.5t118.5 -95t160 -36q34 85 34 174z" />
    <glyph glyph-name="P" unicode="P" horiz-adv-x="752" 
d="M702 557q0 -42 -18 -80.5t-54 -69.5t-91.5 -53.5t-130.5 -32.5l-93 -13v-197l85 -111h-370l84 111v578l-84 111h374q68 0 123 -20.5t94 -54.5t60 -78t21 -90zM507 479q0 38 -15 74.5t-41 66.5t-61 50.5t-75 26.5v-240l167 -69q25 43 25 91z" />
    <glyph glyph-name="Q" unicode="Q" horiz-adv-x="889" 
d="M834 401q0 -72 -20 -135.5t-55.5 -114.5t-85 -88.5t-108.5 -56.5l161 -89l-47 -84l-285 157q-72 9 -134 41.5t-107.5 84.5t-71.5 121.5t-26 151.5q0 89 30.5 166.5t83 134.5t123.5 90t153 33q81 0 152 -31t123.5 -86t83 -130.5t30.5 -164.5zM650 275q0 79 -25.5 154
t-74 133.5t-119 94.5t-159.5 36q-34 -81 -34 -172q0 -79 25.5 -154.5t74 -134.5t118.5 -95t160 -36q34 85 34 174z" />
    <glyph glyph-name="R" unicode="R" horiz-adv-x="769" 
d="M573 -27l-258 394v-256l85 -111h-370l84 111v578l-84 111h374q68 0 123 -20.5t94 -54.5t60 -78t21 -90q0 -63 -39.5 -117t-121.5 -87l121 -186l107 -77zM507 478q0 39 -15 75.5t-41 66.5t-61 50.5t-75 26.5v-240l167 -68q13 21 19 43.5t6 45.5z" />
    <glyph glyph-name="S" unicode="S" horiz-adv-x="670" 
d="M416 591l-197 115q-6 -21 -6 -37q0 -23 12.5 -43t31.5 -37.5t40 -32t38 -25.5q43 -28 90 -58.5t87 -67.5t66 -83.5t26 -105.5q0 -53 -22.5 -97t-60 -75t-86.5 -48t-103 -17q-76 0 -155 23t-157 77l201 120l208 -138q12 20 16.5 35.5t4.5 30.5q0 22 -12 43t-29.5 40
t-38 35t-36.5 28q-39 28 -83.5 60t-83 69.5t-64 82t-25.5 97.5q0 52 19.5 95t55 73.5t84 47.5t105.5 17q78 0 140 -28.5t128 -78.5z" />
    <glyph glyph-name="T" unicode="T" horiz-adv-x="742" 
d="M702 606l-231 124v-619l85 -111h-370l84 111v619l-230 -125v195h662v-194v0z" />
    <glyph glyph-name="U" unicode="U" horiz-adv-x="846" 
d="M731 689v-398q0 -63 -23.5 -118.5t-65 -96.5t-97.5 -65t-122 -24t-122.5 24t-98 65.5t-65 97t-23.5 118.5v397l-84 111h370l-85 -111v-394q0 -45 15 -84t41.5 -68t63.5 -46t82 -17h13v609l-84 111h370z" />
    <glyph glyph-name="V" unicode="V" horiz-adv-x="847" 
d="M837 800l-85 -111l-332 -736l-340 709l-70 71l194 116l266 -555l178 395l-84 111h273v0z" />
    <glyph glyph-name="W" unicode="W" horiz-adv-x="1267" 
d="M1257 800l-85 -111l-332 -736l-216 451l-204 -451l-340 709l-70 71l194 116l266 -555l100 222l-70 146l-70 71l194 116l266 -555l178 395l-84 111h273v0z" />
    <glyph glyph-name="X" unicode="X" horiz-adv-x="788" 
d="M778 800l-272 -373l185 -262l86 -72l-198 -120l-227 324l-133 -187l83 -110h-292l280 386l-188 267l-86 72l198 120l231 -331l126 176l-83 110h290v0z" />
    <glyph glyph-name="Y" unicode="Y" horiz-adv-x="787" 
d="M777 800l-270 -453v-236l85 -111h-370l84 111v209l-204 334l-82 75l193 116l241 -396l143 241l-84 110h264v0z" />
    <glyph glyph-name="Z" unicode="Z" horiz-adv-x="643" 
d="M623 800l-332 -729l300 123v-194h-551l331 729l-299 -123v194h551v0z" />
    <glyph glyph-name="bracketleft" unicode="[" horiz-adv-x="394" 
d="M334 -298h-264v1098h264v-96h-167v-906h167v-96v0z" />
    <glyph glyph-name="backslash" unicode="\" horiz-adv-x="551" 
d="M531 2l-67 -48l-444 808l67 48l444 -808v0z" />
    <glyph glyph-name="bracketright" unicode="]" horiz-adv-x="394" 
d="M324 -298h-264v96h167v906h-167v96h264v-1098v0z" />
    <glyph glyph-name="grave" unicode="`" horiz-adv-x="661" 
d="M458 731l-34 -69l-251 113l34 70l251 -114v0z" />
    <glyph glyph-name="a" unicode="a" horiz-adv-x="674" 
d="M461 -26l-66 112l-187 -112q-75 57 -114 139.5t-39 166.5q0 53 16.5 101.5t51 85t87.5 58.5t125 22q64 0 128 -17.5t120 -49.5v-336l61 -61zM382 370l-179 87q-13 -35 -13 -69q0 -41 15.5 -79t42 -71t61 -59t73.5 -42v233z" />
    <glyph glyph-name="b" unicode="b" horiz-adv-x="697" 
d="M642 263q0 -54 -17 -104t-53 -88.5t-91.5 -61t-131.5 -22.5q-46 0 -92 9t-88 25.5t-77.5 38.5t-61.5 49l86 51v519l-65 65l266 157v-443l173 104q38 -29 66.5 -64.5t47.5 -74.5t28.5 -79.5t9.5 -80.5zM508 147q0 41 -15.5 79t-42 71t-61 59t-72.5 43v-234l179 -87
q12 34 12 69z" />
    <glyph glyph-name="c" unicode="c" horiz-adv-x="611" 
d="M406 310q-35 48 -83 87t-113 63q-8 -35 -8 -67q0 -63 26 -118t70 -99t102 -74t122 -43q-41 -35 -88 -53.5t-101 -18.5q-59 0 -109.5 22t-88 60t-59 89t-21.5 109t21.5 109t59 89t88 60t109.5 22q79 0 142 -38t101 -103z" />
    <glyph glyph-name="d" unicode="d" horiz-adv-x="673" 
d="M460 -26l-66 112l-187 -112q-76 59 -114 139t-38 160q0 55 17 105t53 88t91.5 60.5t132.5 22.5q8 0 16 -0.5t16 -0.5v131l-64 65l265 157v-756l61 -61zM381 372l-179 87q-13 -35 -13 -70q0 -41 15.5 -79t42 -71t61 -59t73.5 -43v235z" />
    <glyph glyph-name="e" unicode="e" horiz-adv-x="636" 
d="M308 166q86 -81 214 -107q-41 -35 -88 -53.5t-101 -18.5q-59 0 -109.5 22t-88 60t-59 89t-21.5 109t21.5 109t59 89t88 60t109.5 22q42 0 88.5 -18.5t85.5 -54.5t64 -89t25 -121zM405 248q0 66 -26.5 107t-60.5 64t-64.5 31.5t-39.5 10.5q-8 -38 -8 -68v-34.5t5 -34.5z
" />
    <glyph glyph-name="f" unicode="f" horiz-adv-x="518" 
d="M463 668l-111 95v-253h111v-94h-111v-305l85 -111h-370l84 111v305h-111v94h111v56q0 65 19 117.5t55 89t88 56t118 19.5q54 0 108.5 -19t108.5 -50z" />
    <glyph glyph-name="g" unicode="g" horiz-adv-x="671" 
d="M566 380q5 -18 9.5 -39t4.5 -41q0 -53 -20.5 -97.5t-55 -77.5t-80.5 -52.5t-97 -21.5l-19 -26q62 -9 107 -28t74.5 -44.5t44 -55.5t14.5 -61q0 -34 -15 -65.5t-44.5 -55.5t-74 -38.5t-103.5 -14.5t-120 16t-116 42l115 118l262 -83q-16 49 -59 78.5t-97.5 45.5
t-112.5 21.5t-104 5.5l137 165q-35 13 -64.5 35.5t-51 52t-33.5 65.5t-12 76q0 56 22 101.5t59 78t85.5 50t101.5 17.5q41 0 86 -6.5t88.5 -20.5t83 -36t70.5 -54zM435 188q0 51 -19.5 95.5t-52 80.5t-74.5 63t-88 43q-4 -15 -4.5 -29.5t-0.5 -29.5q0 -51 19.5 -95.5
t52 -80.5t75 -63t87.5 -43q4 14 4.5 29t0.5 30z" />
    <glyph glyph-name="h" unicode="h" horiz-adv-x="750" 
d="M443 0v296q0 25 -10.5 47.5t-29 39.5t-43.5 26.5t-54 9.5h-1v-308l85 -111h-370l84 111v568l-64 64l265 158v-426l142 86q44 -9 80.5 -32.5t62.5 -56t40.5 -71.5t14.5 -81v-209l85 -111h-287z" />
    <glyph glyph-name="i" unicode="i" 
d="M305 647h-201v153h201v-153zM390 0h-370l84 111v230l-64 65l265 157v-452z" />
    <glyph glyph-name="j" unicode="j" horiz-adv-x="385" 
d="M104 647v153h201v-153h-201zM305 -18q0 -42 -13 -84t-35.5 -81t-53.5 -73t-67 -59l-193 116q80 40 120.5 92.5t40.5 111.5v335l-64 65l265 158v-581z" />
    <glyph glyph-name="k" unicode="k" horiz-adv-x="719" 
d="M709 88l-190 -114l-214 252v-115l85 -111h-370l84 111v568l-64 64l265 158v-638l158 144l-87 103h322l-222 -200l124 -147l109 -75v0z" />
    <glyph glyph-name="l" unicode="l" 
d="M390 0h-370l84 111v568l-64 64l265 158v-790l85 -111v0z" />
    <glyph glyph-name="m" unicode="m" horiz-adv-x="1060" 
d="M753 0v295q0 25 -8.5 47.5t-24.5 39t-39 26.5t-51 10v-307l85 -111h-287v295q0 25 -8.5 47.5t-24.5 39t-39 26.5t-51 10v-307l85 -111h-370l84 111v279l-61 61l183 109l59 -98l163 97q48 -13 84.5 -42t59.5 -67l181 109q41 -11 74.5 -35t57.5 -56t37 -70.5t13 -78.5v-208
l85 -111h-287z" />
    <glyph glyph-name="n" unicode="n" horiz-adv-x="750" 
d="M443 0v295q0 25 -10.5 47.5t-29 39t-43.5 26.5t-54 10h-1v-307l85 -111h-370l84 111v279l-61 61l183 109l59 -98l162 97q44 -9 80.5 -32.5t62.5 -55.5t40.5 -71t14.5 -81v-208l85 -111h-287z" />
    <glyph glyph-name="o" unicode="o" horiz-adv-x="667" 
d="M612 267q0 -58 -21.5 -109t-59 -89t-88.5 -60t-110 -22t-109.5 22t-88 60t-59 89t-21.5 109t21.5 109t59 89t88 60t109.5 22t110 -22t88.5 -60t59 -89t21.5 -109zM462 140q0 55 -20 104.5t-54.5 91.5t-80 73.5t-97.5 50.5q-8 -35 -8 -67q0 -55 20 -104.5t54 -91t80 -73
t98 -50.5q8 35 8 66z" />
    <glyph glyph-name="p" unicode="p" horiz-adv-x="673" 
d="M618 261q0 -55 -17 -105t-52.5 -88t-91 -60.5t-132.5 -22.5q-8 0 -16 1t-16 1v-132l64 -65l-265 -157v756l-62 61l183 110l67 -112l186 112q76 -60 114 -139.5t38 -159.5zM484 145q0 41 -15.5 79t-42 70.5t-61 58.5t-72.5 43v-234l179 -87q12 36 12 70z" />
    <glyph glyph-name="q" unicode="q" horiz-adv-x="697" 
d="M582 374v-519l64 -64l-265 -158v444l-174 -104q-76 59 -114 138.5t-38 160.5q0 54 17 103.5t53 88t91.5 61t132.5 22.5q46 0 91.5 -9t87.5 -25t77.5 -38t61.5 -49zM381 369l-179 87q-13 -32 -13 -68q0 -41 15.5 -79t42 -71t61 -59.5t73.5 -43.5v234z" />
    <glyph glyph-name="r" unicode="r" horiz-adv-x="612" 
d="M420 327q-20 42 -47 66.5t-68 24.5v-307l85 -111h-370l84 111v279l-61 61l183 109l59 -98l163 97q52 -14 86.5 -48t57.5 -82z" />
    <glyph glyph-name="s" unicode="s" horiz-adv-x="568" 
d="M518 150q0 -48 -22.5 -81t-56.5 -53t-73.5 -28.5t-73.5 -8.5q-72 0 -140.5 14.5t-131.5 58.5l118 92l263 -87q-5 30 -32 52.5t-63.5 42.5t-77.5 40t-76 44.5t-58 56t-23 74.5q0 49 20.5 84.5t53.5 58t75 33t86 10.5q53 0 109.5 -16t100.5 -51l-123 -96l-226 74
q6 -30 35 -52.5t68 -42.5t82.5 -40t80.5 -45t61 -57t24 -77z" />
    <glyph glyph-name="t" unicode="t" horiz-adv-x="503" 
d="M352 416v-268l64 -63l-186 -111q-20 28 -34.5 54t-24.5 53t-15 56.5t-5 65.5v213h-111v94h111v70l-64 65l265 157v-292h111v-94h-111z" />
    <glyph glyph-name="u" unicode="u" horiz-adv-x="716" 
d="M503 -27l-59 99l-162 -98q-44 9 -80.5 32.5t-62.5 55.5t-40.5 71.5t-14.5 81.5v124l-64 64l265 158v-323q0 -25 10.5 -47.5t29 -39t43.5 -26t54 -9.5h2v223l-64 64l265 158v-418l61 -61z" />
    <glyph glyph-name="v" unicode="v" horiz-adv-x="629" 
d="M619 510l-319 -539l-213 382l-77 68l184 139l171 -306l87 147l-92 109h259v0z" />
    <glyph glyph-name="w" unicode="w" horiz-adv-x="968" 
d="M958 510l-319 -539l-164 295l-175 -295l-213 382l-77 68l184 139l171 -306l59 100l-75 67l184 139l171 -306l87 147l-92 109h259v0z" />
    <glyph glyph-name="x" unicode="x" horiz-adv-x="674" 
d="M664 510l-200 -260l87 -98l90 -64l-165 -126l-197 218l-59 -71l92 -109h-302l201 257l-103 114l-90 64l165 126l212 -234l59 74l-92 109h302v0z" />
    <glyph glyph-name="y" unicode="y" horiz-adv-x="639" 
d="M629 510l-308 -699l93 -110h-247l104 233l-184 413l-77 66l192 148l174 -388l100 227l-93 110h246v0z" />
    <glyph glyph-name="z" unicode="z" horiz-adv-x="616" 
d="M576 510l-287 -455l254 141v-196h-503l289 456l-239 -135v189h486v0z" />
    <glyph glyph-name="braceleft" unicode="{" horiz-adv-x="541" 
d="M481 -298h-265v435l-196 113l196 112v438h265v-96h-168v-395l-105 -59l105 -61v-391h168v-96v0z" />
    <glyph glyph-name="bar" unicode="|" horiz-adv-x="257" 
d="M177 -298h-97v1098h97v-1098v0z" />
    <glyph glyph-name="braceright" unicode="}" horiz-adv-x="541" 
d="M521 252l-196 -112v-438h-265v96h168v395l105 59l-105 61v391h-168v96h265v-435l196 -113v0z" />
    <glyph glyph-name="asciitilde" unicode="~" horiz-adv-x="589" 
d="M497 220q-23 17 -49 34.5t-57 17.5q-22 0 -44 -9.5t-45.5 -20.5t-49.5 -20.5t-56 -9.5q-48 0 -84.5 21t-71.5 47l52 58q22 -17 48 -34.5t56 -17.5q22 0 44.5 9.5t46 20.5t50 20.5t56.5 9.5q24 0 44.5 -6t39.5 -15.5t36.5 -21.5t35.5 -25z" />
    <glyph glyph-name="Adieresis" unicode="&#xc4;" horiz-adv-x="870" 
d="M870 0h-382l85 111l-51 107h-278l-51 -107l83 -111h-276l85 111l350 736l350 -735zM476 315l-93 195l-93 -195h186zM620 899h-137v103h137v-103zM387 899h-137v103h137v-103z" />
    <glyph glyph-name="Aring" unicode="&#xc5;" horiz-adv-x="870" 
d="M488 0l85 111l-51 107h-278l-51 -107l83 -111h-276l85 111l312 655q-35 12 -58 42.5t-23 68.5q0 24 9.5 45.5t25.5 37.5t37.5 25.5t45.5 9.5t45.5 -9.5t37.5 -25.5t25.5 -37.5t9.5 -45.5q0 -38 -22 -68t-57 -42l312 -655l85 -112h-382zM498 877q0 27 -19 45.5t-45 18.5
t-45 -18.5t-19 -45.5q0 -26 19 -44.5t45 -18.5t45 18.5t19 44.5zM383 510l-93 -195h186z" />
    <glyph glyph-name="Ccedilla" unicode="&#xc7;" horiz-adv-x="761" 
d="M545 552q-41 41 -82 68t-78 43t-66.5 23t-46.5 7q-34 -84 -34 -167q0 -86 34 -162t95.5 -133t147 -90.5t187.5 -34.5q-74 -64 -138 -91t-131 -27q-79 0 -148 32t-120 88t-80.5 131t-29.5 162t29.5 162t81 130.5t120.5 87t149 31.5q86 0 160.5 -38t135.5 -112zM447 -211
q-32 10 -67 20t-69.5 17.5t-67.5 12.5t-60 5l217 174l100 -19l-58 -45q43 -6 90.5 -21.5t87.5 -46.5z" />
    <glyph glyph-name="Eacute" unicode="&#xc9;" horiz-adv-x="633" 
d="M583 0h-553l84 111v578l-84 111h553v-194l-268 125v-252h199v-176l-199 107v-341l268 125v-194v0zM467 999l-251 -113l-34 69l251 114l34 -70v0z" />
    <glyph glyph-name="Ntilde" unicode="&#xd1;" horiz-adv-x="832" 
d="M802 800l-84 -111v-537l83 -60l-198 -119l-391 571v-433l85 -111h-267l84 111v577l-76 112h237l345 -505v394l-85 111h267v0zM578 951q-12 -11 -24 -22.5t-25.5 -20.5t-28.5 -15t-33 -6q-23 0 -42 9t-34.5 20t-28 20t-23.5 9q-5 0 -12.5 -6t-16 -14t-15.5 -15.5
t-10 -11.5l-56 50l24 24t25 22t28 16.5t34 6.5q23 0 41 -9t33 -19.5t28 -19.5t26 -9q5 0 13 5t16 12t15 14t11 10l55 -50v0z" />
    <glyph glyph-name="Odieresis" unicode="&#xd6;" horiz-adv-x="889" 
d="M834 401q0 -89 -30.5 -164.5t-83 -131t-123.5 -87t-152 -31.5t-152.5 29.5t-124 82.5t-83 127t-30.5 163t30.5 166.5t83 134.5t123.5 90t153 33q81 0 152 -31t123.5 -86t83 -130.5t30.5 -164.5zM650 275q0 79 -25.5 154t-74 133.5t-119 94.5t-159.5 36q-34 -81 -34 -172
q0 -79 25.5 -154.5t74 -134.5t118.5 -95t160 -36q34 85 34 174zM627 898h-137v103h137v-103zM394 898h-137v103h137v-103z" />
    <glyph glyph-name="Udieresis" unicode="&#xdc;" horiz-adv-x="846" 
d="M731 689v-398q0 -63 -23.5 -118.5t-65 -96.5t-97.5 -65t-122 -24t-122.5 24t-98 65.5t-65 97t-23.5 118.5v397l-84 111h370l-85 -111v-394q0 -45 15 -84t41.5 -68t63.5 -46t82 -17h13v609l-84 111h370zM609 899h-137v103h137v-103zM376 899h-137v103h137v-103z" />
    <glyph glyph-name="aacute" unicode="&#xe1;" horiz-adv-x="674" 
d="M461 -26l-66 112l-187 -112q-75 57 -114 139.5t-39 166.5q0 53 16.5 101.5t51 85t87.5 58.5t125 22q64 0 128 -17.5t120 -49.5v-336l61 -61zM382 370l-179 87q-13 -35 -13 -69q0 -41 15.5 -79t42 -71t61 -59t73.5 -42v233zM484 775l-251 -113l-34 69l251 114l34 -70v0z
" />
    <glyph glyph-name="agrave" unicode="&#xe0;" horiz-adv-x="674" 
d="M461 -26l-66 112l-187 -112q-75 57 -114 139.5t-39 166.5q0 53 16.5 101.5t51 85t87.5 58.5t125 22q64 0 128 -17.5t120 -49.5v-336l61 -61zM382 370l-179 87q-13 -35 -13 -69q0 -41 15.5 -79t42 -71t61 -59t73.5 -42v233zM489 731l-34 -69l-251 113l34 70l251 -114v0z
" />
    <glyph glyph-name="acircumflex" unicode="&#xe2;" horiz-adv-x="674" 
d="M461 -26l-66 112l-187 -112q-75 57 -114 139.5t-39 166.5q0 53 16.5 101.5t51 85t87.5 58.5t125 22q64 0 128 -17.5t120 -49.5v-336l61 -61zM382 370l-179 87q-13 -35 -13 -69q0 -41 15.5 -79t42 -71t61 -59t73.5 -42v233zM504 764l-38 -67l-121 65l-121 -65l-38 67
l159 84l159 -84v0z" />
    <glyph glyph-name="adieresis" unicode="&#xe4;" horiz-adv-x="674" 
d="M461 -26l-66 112l-187 -112q-75 57 -114 139.5t-39 166.5q0 53 16.5 101.5t51 85t87.5 58.5t125 22q64 0 128 -17.5t120 -49.5v-336l61 -61zM382 370l-179 87q-13 -35 -13 -69q0 -41 15.5 -79t42 -71t61 -59t73.5 -42v233zM516 697h-137v103h137v-103zM283 697h-137v103
h137v-103z" />
    <glyph glyph-name="atilde" unicode="&#xe3;" horiz-adv-x="674" 
d="M461 -26l-66 112l-187 -112q-75 57 -114 139.5t-39 166.5q0 53 16.5 101.5t51 85t87.5 58.5t125 22q64 0 128 -17.5t120 -49.5v-336l61 -61zM382 370l-179 87q-13 -35 -13 -69q0 -41 15.5 -79t42 -71t61 -59t73.5 -42v233zM512 773q-12 -11 -24 -22.5t-25.5 -20.5
t-28.5 -15t-33 -6q-23 0 -42 9t-34.5 20t-28 20t-23.5 9q-5 0 -12.5 -6t-16 -14t-15.5 -15.5t-10 -11.5l-56 50l24 24t25 22t28 16.5t34 6.5q23 0 41 -9t33 -19.5t28 -19.5t26 -9q5 0 13 5t16 12t15 14t11 10l55 -50v0z" />
    <glyph glyph-name="aring" unicode="&#xe5;" horiz-adv-x="674" 
d="M461 -26l-66 112l-187 -112q-75 57 -114 139.5t-39 166.5q0 53 16.5 101.5t51 85t87.5 58.5t125 22q64 0 128 -17.5t120 -49.5v-336l61 -61zM382 370l-179 87q-13 -35 -13 -69q0 -41 15.5 -79t42 -71t61 -59t73.5 -42v233zM462 733q0 -24 -9.5 -45t-25.5 -36.5
t-37.5 -24.5t-45.5 -9t-45.5 9t-37.5 24.5t-25.5 36.5t-9.5 45t9.5 44.5t25.5 36.5t37.5 25t45.5 9t45.5 -9t37.5 -25t25.5 -36.5t9.5 -44.5zM408 733q0 26 -19 44t-45 18t-45 -18t-19 -44t19 -44.5t45 -18.5t45 18.5t19 44.5z" />
    <glyph glyph-name="ccedilla" unicode="&#xe7;" horiz-adv-x="611" 
d="M406 310q-35 48 -83 87t-113 63q-8 -35 -8 -67q0 -63 26 -118t70 -99t102 -74t122 -43q-41 -35 -88 -53.5t-101 -18.5q-59 0 -109.5 22t-88 60t-59 89t-21.5 109t21.5 109t59 89t88 60t109.5 22q79 0 142 -38t101 -103zM350 -211q-32 10 -67 20t-69.5 17.5t-67.5 12.5
t-60 5l217 174l100 -19l-58 -45q43 -6 90.5 -21.5t87.5 -46.5z" />
    <glyph glyph-name="eacute" unicode="&#xe9;" horiz-adv-x="636" 
d="M308 166q86 -81 214 -107q-41 -35 -88 -53.5t-101 -18.5q-59 0 -109.5 22t-88 60t-59 89t-21.5 109t21.5 109t59 89t88 60t109.5 22q42 0 88.5 -18.5t85.5 -54.5t64 -89t25 -121zM405 248q0 66 -26.5 107t-60.5 64t-64.5 31.5t-39.5 10.5q-8 -38 -8 -68v-34.5t5 -34.5z
M458 775l-251 -113l-34 69l251 114l34 -70v0z" />
    <glyph glyph-name="egrave" unicode="&#xe8;" horiz-adv-x="636" 
d="M308 166q86 -81 214 -107q-41 -35 -88 -53.5t-101 -18.5q-59 0 -109.5 22t-88 60t-59 89t-21.5 109t21.5 109t59 89t88 60t109.5 22q42 0 88.5 -18.5t85.5 -54.5t64 -89t25 -121zM405 248q0 66 -26.5 107t-60.5 64t-64.5 31.5t-39.5 10.5q-8 -38 -8 -68v-34.5t5 -34.5z
M458 731l-34 -69l-251 113l34 70l251 -114v0z" />
    <glyph glyph-name="ecircumflex" unicode="&#xea;" horiz-adv-x="636" 
d="M308 166q86 -81 214 -107q-41 -35 -88 -53.5t-101 -18.5q-59 0 -109.5 22t-88 60t-59 89t-21.5 109t21.5 109t59 89t88 60t109.5 22q42 0 88.5 -18.5t85.5 -54.5t64 -89t25 -121zM405 248q0 66 -26.5 107t-60.5 64t-64.5 31.5t-39.5 10.5q-8 -38 -8 -68v-34.5t5 -34.5z
M471 764l-38 -67l-121 65l-121 -65l-38 67l159 84l159 -84v0z" />
    <glyph glyph-name="edieresis" unicode="&#xeb;" horiz-adv-x="636" 
d="M308 166q86 -81 214 -107q-41 -35 -88 -53.5t-101 -18.5q-59 0 -109.5 22t-88 60t-59 89t-21.5 109t21.5 109t59 89t88 60t109.5 22q42 0 88.5 -18.5t85.5 -54.5t64 -89t25 -121zM405 248q0 66 -26.5 107t-60.5 64t-64.5 31.5t-39.5 10.5q-8 -38 -8 -68v-34.5t5 -34.5z
M516 697h-137v103h137v-103zM283 697h-137v103h137v-103z" />
    <glyph glyph-name="iacute" unicode="&#xed;" 
d="M331 770l-251 -112l-34 68l251 113l34 -69v0zM390 0h-370l84 111v230l-64 65l265 157v-452l85 -111v0z" />
    <glyph glyph-name="igrave" unicode="&#xec;" 
d="M349 726l-34 -68l-251 112l34 69l251 -113v0zM390 0h-370l84 111v230l-64 65l265 157v-452l85 -111v0z" />
    <glyph glyph-name="icircumflex" unicode="&#xee;" 
d="M365 759l-38 -66l-121 64l-121 -64l-38 66l159 83l159 -83v0zM390 0h-370l84 111v230l-64 65l265 157v-452l85 -111v0z" />
    <glyph glyph-name="idieresis" unicode="&#xef;" 
d="M367 693h-137v101h137v-101v0zM134 693h-137v101h137v-101v0zM390 0h-370l84 111v230l-64 65l265 157v-452l85 -111v0z" />
    <glyph glyph-name="ntilde" unicode="&#xf1;" horiz-adv-x="750" 
d="M443 0v295q0 25 -10.5 47.5t-29 39t-43.5 26.5t-54 10h-1v-307l85 -111h-370l84 111v279l-61 61l183 109l59 -98l162 97q44 -9 80.5 -32.5t62.5 -55.5t40.5 -71t14.5 -81v-208l85 -111h-287zM503 773q-12 -11 -24 -22.5t-25.5 -20.5t-28.5 -15t-33 -6q-23 0 -42 9
t-34.5 20t-28 20t-23.5 9q-5 0 -12.5 -6t-16 -14t-15.5 -15.5t-10 -11.5l-56 50l24 24t25 22t28 16.5t34 6.5q23 0 41 -9t33 -19.5t28 -19.5t26 -9q5 0 13 5t16 12t15 14t11 10l55 -50v0z" />
    <glyph glyph-name="oacute" unicode="&#xf3;" horiz-adv-x="667" 
d="M612 267q0 -58 -21.5 -109t-59 -89t-88.5 -60t-110 -22t-109.5 22t-88 60t-59 89t-21.5 109t21.5 109t59 89t88 60t109.5 22t110 -22t88.5 -60t59 -89t21.5 -109zM462 140q0 55 -20 104.5t-54.5 91.5t-80 73.5t-97.5 50.5q-8 -35 -8 -67q0 -55 20 -104.5t54 -91t80 -73
t98 -50.5q8 35 8 66zM458 775l-251 -113l-34 69l251 114l34 -70v0z" />
    <glyph glyph-name="ograve" unicode="&#xf2;" horiz-adv-x="667" 
d="M612 267q0 -58 -21.5 -109t-59 -89t-88.5 -60t-110 -22t-109.5 22t-88 60t-59 89t-21.5 109t21.5 109t59 89t88 60t109.5 22t110 -22t88.5 -60t59 -89t21.5 -109zM462 140q0 55 -20 104.5t-54.5 91.5t-80 73.5t-97.5 50.5q-8 -35 -8 -67q0 -55 20 -104.5t54 -91t80 -73
t98 -50.5q8 35 8 66zM458 731l-34 -69l-251 113l34 70l251 -114v0z" />
    <glyph glyph-name="ocircumflex" unicode="&#xf4;" horiz-adv-x="667" 
d="M612 267q0 -58 -21.5 -109t-59 -89t-88.5 -60t-110 -22t-109.5 22t-88 60t-59 89t-21.5 109t21.5 109t59 89t88 60t109.5 22t110 -22t88.5 -60t59 -89t21.5 -109zM462 140q0 55 -20 104.5t-54.5 91.5t-80 73.5t-97.5 50.5q-8 -35 -8 -67q0 -55 20 -104.5t54 -91t80 -73
t98 -50.5q8 35 8 66zM493 764l-38 -67l-121 65l-121 -65l-38 67l159 84l159 -84v0z" />
    <glyph glyph-name="odieresis" unicode="&#xf6;" horiz-adv-x="667" 
d="M612 267q0 -58 -21.5 -109t-59 -89t-88.5 -60t-110 -22t-109.5 22t-88 60t-59 89t-21.5 109t21.5 109t59 89t88 60t109.5 22t110 -22t88.5 -60t59 -89t21.5 -109zM462 140q0 55 -20 104.5t-54.5 91.5t-80 73.5t-97.5 50.5q-8 -35 -8 -67q0 -55 20 -104.5t54 -91t80 -73
t98 -50.5q8 35 8 66zM516 697h-137v103h137v-103zM283 697h-137v103h137v-103z" />
    <glyph glyph-name="otilde" unicode="&#xf5;" horiz-adv-x="667" 
d="M612 267q0 -58 -21.5 -109t-59 -89t-88.5 -60t-110 -22t-109.5 22t-88 60t-59 89t-21.5 109t21.5 109t59 89t88 60t109.5 22t110 -22t88.5 -60t59 -89t21.5 -109zM462 140q0 55 -20 104.5t-54.5 91.5t-80 73.5t-97.5 50.5q-8 -35 -8 -67q0 -55 20 -104.5t54 -91t80 -73
t98 -50.5q8 35 8 66zM494 773q-12 -11 -24 -22.5t-25.5 -20.5t-28.5 -15t-33 -6q-23 0 -42 9t-34.5 20t-28 20t-23.5 9q-5 0 -12.5 -6t-16 -14t-15.5 -15.5t-10 -11.5l-56 50l24 24t25 22t28 16.5t34 6.5q23 0 41 -9t33 -19.5t28 -19.5t26 -9q5 0 13 5t16 12t15 14t11 10
l55 -50v0z" />
    <glyph glyph-name="uacute" unicode="&#xfa;" horiz-adv-x="716" 
d="M503 -27l-59 99l-162 -98q-44 9 -80.5 32.5t-62.5 55.5t-40.5 71.5t-14.5 81.5v124l-64 64l265 158v-323q0 -25 10.5 -47.5t29 -39t43.5 -26t54 -9.5h2v223l-64 64l265 158v-418l61 -61zM500 775l-251 -113l-34 69l251 114l34 -70v0z" />
    <glyph glyph-name="ugrave" unicode="&#xf9;" horiz-adv-x="716" 
d="M503 -27l-59 99l-162 -98q-44 9 -80.5 32.5t-62.5 55.5t-40.5 71.5t-14.5 81.5v124l-64 64l265 158v-323q0 -25 10.5 -47.5t29 -39t43.5 -26t54 -9.5h2v223l-64 64l265 158v-418l61 -61zM485 731l-34 -69l-251 113l34 70l251 -114v0z" />
    <glyph glyph-name="ucircumflex" unicode="&#xfb;" horiz-adv-x="716" 
d="M503 -27l-59 99l-162 -98q-44 9 -80.5 32.5t-62.5 55.5t-40.5 71.5t-14.5 81.5v124l-64 64l265 158v-323q0 -25 10.5 -47.5t29 -39t43.5 -26t54 -9.5h2v223l-64 64l265 158v-418l61 -61zM489 764l-38 -67l-121 65l-121 -65l-38 67l159 84l159 -84v0z" />
    <glyph glyph-name="udieresis" unicode="&#xfc;" horiz-adv-x="716" 
d="M503 -27l-59 99l-162 -98q-44 9 -80.5 32.5t-62.5 55.5t-40.5 71.5t-14.5 81.5v124l-64 64l265 158v-323q0 -25 10.5 -47.5t29 -39t43.5 -26t54 -9.5h2v223l-64 64l265 158v-418l61 -61zM516 697h-137v103h137v-103zM283 697h-137v103h137v-103z" />
    <glyph glyph-name="dagger" unicode="&#x2020;" horiz-adv-x="435" 
d="M415 366l-171 87l82 -493h-219l83 493l-170 -87v219l167 -84l-81 171h221l-81 -171l169 84v-219v0z" />
    <glyph glyph-name="degree" unicode="&#xb0;" horiz-adv-x="482" 
d="M435 621q0 -39 -15.5 -74t-41.5 -61t-61.5 -41t-75.5 -15t-75.5 15t-61.5 41t-41.5 61t-15.5 74q0 40 15.5 75t41.5 61t61.5 41t75.5 15t75.5 -15t61.5 -41t41.5 -61t15.5 -75zM380 621q0 28 -11 53.5t-29.5 44t-44 29.5t-54.5 11t-54.5 -11t-44 -29.5t-29.5 -44
t-11 -53.5t11 -53t29.5 -43.5t44 -29.5t54.5 -11t54.5 11t44 29.5t29.5 43.5t11 53z" />
    <glyph glyph-name="cent" unicode="&#xa2;" horiz-adv-x="611" 
d="M406 310q-35 48 -83 87t-113 63q-8 -35 -8 -67q0 -63 26 -118t70 -99t102 -74t122 -43q-69 -60 -155 -70v-200h-97v205q-47 10 -86.5 35.5t-68 61.5t-44.5 81t-16 95t16 95t44.5 81t68 61t86.5 36v205h97v-200q68 -8 121.5 -44.5t87.5 -94.5z" />
    <glyph glyph-name="sterling" unicode="&#xa3;" horiz-adv-x="668" 
d="M460 606l-151 109v-236h199v-176l-199 107v-341l268 125v-194h-553l84 111v477q0 49 19.5 91.5t54 74t81.5 49.5t103 18q39 0 73.5 -6t67 -19t65.5 -32.5t71 -46.5z" />
    <glyph glyph-name="section" unicode="&#xa7;" horiz-adv-x="552" 
d="M384 369l-217 90q5 -20 24.5 -39.5t45 -36.5t51.5 -30.5t45 -21.5q33 -14 64.5 -31.5t56.5 -40t40.5 -49t15.5 -58.5q0 -47 -19 -79.5t-51 -52.5q31 -24 50.5 -53.5t19.5 -65.5q0 -48 -20.5 -81.5t-53.5 -54t-74 -29.5t-82 -9q-66 0 -116.5 12.5t-84.5 28.5
q-40 18 -69 42l128 105l236 -99q-6 21 -24 40t-41 35.5t-48 30t-44 22.5q-24 11 -51 27t-50 37t-38 47.5t-15 59.5q0 47 17 80t45 56q-26 22 -44 50.5t-18 64.5q0 50 20 85.5t51.5 58t70.5 32.5t78 10q36 0 66.5 -4.5t58 -14t54 -23.5t55.5 -33zM374 67q-9 30 -34 52t-56 39
t-63 29t-54 21q7 -27 32.5 -49t58 -40t64.5 -31t52 -21z" />
    <glyph glyph-name="bullet" unicode="&#x2022;" horiz-adv-x="915" 
d="M865 186l-285 23l-123 -256l-122 256l-285 -23l162 234l-162 234l285 -23l122 257l123 -257l285 23l-163 -234l163 -234v0z" />
    <glyph glyph-name="paragraph" unicode="&#xb6;" horiz-adv-x="655" 
d="M468 -200v928h-135v-928h-156l84 111v501q-53 2 -92.5 19.5t-66 44t-39.5 60.5t-13 69q0 36 14 71t42.5 62.5t71 44.5t99.5 17h348l-85 -111v-778l85 -111h-157z" />
    <glyph glyph-name="germandbls" unicode="&#xdf;" horiz-adv-x="786" 
d="M731 241q0 -53 -19.5 -99t-53.5 -80.5t-79.5 -54.5t-97.5 -20q-42 0 -79 13t-68 37l117 133l138 -90q6 16 8.5 32t2.5 32q0 47 -22 90.5t-57 77t-80.5 54.5t-91.5 24l84 253l-128 72v-715h-285l84 111v477q0 49 19.5 91.5t54 74t82 49.5t103.5 18q36 0 74 -8t76.5 -22
t75.5 -32.5t70 -40.5l-80 -238q69 -35 110.5 -98t41.5 -141z" />
    <glyph glyph-name="registered" unicode="&#xae;" horiz-adv-x="926" 
d="M856 352q0 -81 -31 -153t-84 -125t-125 -84t-153 -31t-153 31t-125 84t-84 125t-31 153t31 153t84 125t125 84t153 31t153 -31t125 -84t84 -125t31 -153zM801 352q0 70 -26.5 132t-72.5 108t-107.5 72.5t-131.5 26.5t-132 -26.5t-108 -72.5t-72.5 -108t-26.5 -132
t26.5 -131.5t72.5 -107.5t108 -72.5t132 -26.5t131.5 26.5t107.5 72.5t72.5 107.5t26.5 131.5zM594 111l-166 211v-136l50 -61h-215l48 61v326l-48 61h221q40 0 73 -11.5t56 -30.5t35.5 -43.5t12.5 -50.5q0 -35 -23.5 -65t-74.5 -49l83 -106l63 -42zM547 393q0 22 -9.5 43
t-25.5 38.5t-37.5 29t-46.5 14.5v-138l103 -40q16 25 16 53z" />
    <glyph glyph-name="copyright" unicode="&#xa9;" horiz-adv-x="926" 
d="M856 352q0 -81 -31 -153t-84 -125t-125 -84t-153 -31t-153 31t-125 84t-84 125t-31 153t31 153t84 125t125 84t153 31t153 -31t125 -84t84 -125t31 -153zM801 352q0 70 -26.5 132t-72.5 108t-107.5 72.5t-131.5 26.5t-132 -26.5t-108 -72.5t-72.5 -108t-26.5 -132
t26.5 -131.5t72.5 -107.5t108 -72.5t132 -26.5t131.5 26.5t107.5 72.5t72.5 107.5t26.5 131.5zM532 384q-29 39 -69 71t-96 52q-7 -28 -7 -58q0 -52 21.5 -97.5t58 -81.5t83.5 -60.5t98 -34.5q-30 -26 -68 -40.5t-82 -14.5q-48 0 -89.5 17.5t-72.5 48.5t-48.5 72t-17.5 88
t17 88.5t47.5 72t72.5 48.5t91 18q66 0 117 -30.5t80 -81.5z" />
    <glyph glyph-name="trademark" unicode="&#x2122;" horiz-adv-x="897" 
d="M867 400h-211l49 62v180l-109 -167l-111 170v-183l49 -62h-160l49 62v267l-36 34l108 63l132 -203l76 117l-47 60h211l-49 -62v-276zM374 689l-115 61v-288l49 -62h-211l48 62v288l-115 -61v111h344v-111z" />
    <glyph glyph-name="acute" unicode="&#xb4;" horiz-adv-x="661" 
d="M458 775l-251 -113l-34 69l251 114l34 -70v0z" />
    <glyph glyph-name="dieresis" unicode="&#xa8;" horiz-adv-x="662" 
d="M516 697h-137v103h137v-103zM283 697h-137v103h137v-103z" />
    <glyph glyph-name="AE" unicode="&#xc6;" horiz-adv-x="1038" 
d="M988 0h-553l84 111v107h-259l-66 -107l83 -111h-277l86 111l414 689h488v-194l-268 125v-252h199v-176l-199 107v-341l268 125v-194zM519 315v325l-200 -325h200z" />
    <glyph glyph-name="Oslash" unicode="&#xd8;" horiz-adv-x="889" 
d="M834 401q0 -89 -30.5 -164.5t-83 -131t-123.5 -87t-152 -31.5q-49 0 -92 10l-147 -134l-67 70l113 103q-45 25 -81 60.5t-62 80.5t-40 98.5t-14 113.5q0 89 30.5 166.5t83 134.5t123.5 90t153 33q47 0 87 -10l146 134l67 -70l-112 -103q45 -26 82 -62.5t63.5 -83
t41 -101.5t14.5 -116zM650 275q0 79 -25.5 154t-74 133.5t-119 94.5t-159.5 36q-34 -81 -34 -172q0 -79 25.5 -154.5t74 -134.5t118.5 -95t160 -36q34 85 34 174z" />
    <glyph glyph-name="plusminus" unicode="&#xb1;" horiz-adv-x="492" 
d="M425 43h-358v91h358v-91zM425 343h-133v-134h-91v134h-134v91h134v133h91v-133h133v-91z" />
    <glyph glyph-name="yen" unicode="&#xa5;" horiz-adv-x="787" 
d="M777 800l-270 -452h175v-97h-175v-140l85 -111h-370l84 111v140h-175v97h158l-187 306l-82 75l193 116l241 -396l143 241l-84 110h264v0z" />
    <glyph glyph-name="mu" unicode="&#xb5;" horiz-adv-x="716" 
d="M503 -27l-59 99l-159 -96v-121l64 -65l-265 -157v706l-64 64l265 158v-323q0 -25 10.5 -47.5t29 -39t43.5 -26t54 -9.5h2v223l-64 64l265 158v-418l61 -61z" />
    <glyph glyph-name="integral" unicode="&#x222b;" horiz-adv-x="511" 
d="M481 647l-135 116v-818q0 -66 -19 -118t-55 -89t-88 -56.5t-118 -19.5q-54 0 -108.5 19t-107.5 50l160 132l135 -116v818q0 66 19 118t55 89t88 56.5t118 19.5q54 0 108.5 -19t107.5 -50z" />
    <glyph glyph-name="ordfeminine" unicode="&#xaa;" horiz-adv-x="438" 
d="M298 469l-40 67l-112 -67q-91 85 -91 179q0 33 10 62.5t31.5 52.5t55 36.5t79.5 13.5q19 0 39 -4.5t39 -10.5t35 -13t27 -13v-201l37 -37zM251 706l-108 53q-8 -24 -8 -42q0 -24 9.5 -47t25.5 -42.5t37 -35.5t44 -26v140z" />
    <glyph glyph-name="ordmasculine" unicode="&#xba;" horiz-adv-x="444" 
d="M389 645q0 -35 -13 -65.5t-35.5 -53.5t-53 -36.5t-65.5 -13.5t-65.5 13t-53 36t-35.5 54t-13 66t13 65.5t35.5 53.5t53 36t65.5 13t65.5 -13t53 -36t35.5 -53.5t13 -65.5zM299 568q0 33 -12 63t-32.5 55t-48 44t-58.5 30q-5 -22 -5 -40q0 -33 12 -62.5t32.5 -54.5t48 -44
t58.5 -30q5 22 5 39z" />
    <glyph glyph-name="ae" unicode="&#xe6;" horiz-adv-x="957" 
d="M629 166q86 -81 214 -107q-41 -35 -88 -53.5t-101 -18.5q-72 0 -131 32t-97 86l-219 -131q-38 29 -66.5 64t-47.5 74t-28.5 79.5t-9.5 80.5q0 54 17 104t53 88t91.5 60.5t132.5 22.5q41 0 84 -11.5t81 -25.5q31 17 66.5 27t73.5 10q42 0 88.5 -18.5t85.5 -54.5t64 -89
t25 -121zM726 248q0 48 -14.5 82t-36 57.5t-47 38t-46.5 22.5v-144zM381 370l-179 87q-13 -35 -13 -69q0 -41 15.5 -79t42 -71t61 -59t73.5 -42v233z" />
    <glyph glyph-name="oslash" unicode="&#xf8;" horiz-adv-x="667" 
d="M612 267q0 -55 -19.5 -104t-53.5 -86.5t-80.5 -61t-100.5 -27.5l-179 -137l-59 76l106 81q-38 16 -69.5 42t-54 59.5t-35 73.5t-12.5 84q0 55 19 103.5t52.5 85.5t79.5 61t99 29l177 137l59 -76l-103 -80q39 -15 71 -41t55 -60t35.5 -74.5t12.5 -84.5zM462 140
q0 55 -20 104.5t-54.5 91.5t-80 73.5t-97.5 50.5q-8 -35 -8 -67q0 -55 20 -104.5t54 -91t80 -73t98 -50.5q8 35 8 66z" />
    <glyph glyph-name="questiondown" unicode="&#xbf;" horiz-adv-x="621" 
d="M571 211q0 -46 -19.5 -88.5t-55 -74.5t-84 -51.5t-106.5 -19.5q-55 0 -102 18.5t-81 51t-53.5 75.5t-19.5 93q0 38 14 76.5t35 68.5l170 245h-48v195h201v-195h-125l160 -95l-77 -61q37 -18 71.5 -40.5t61 -51t42.5 -64.5t16 -82zM455 132q0 28 -12.5 51.5t-32.5 43
t-45 35t-50 29.5l-29 16l-75 -108l235 -119q9 28 9 52z" />
    <glyph glyph-name="exclamdown" unicode="&#xa1;" horiz-adv-x="301" 
d="M251 605h-201v195h201v-195zM251 0h-201v481h201v-481z" />
    <glyph glyph-name="florin" unicode="&#x192;" horiz-adv-x="511" 
d="M481 647l-135 116v-253h111v-94h-111v-471q0 -66 -19 -118t-55 -89t-88 -56.5t-118 -19.5q-54 0 -108.5 19t-107.5 50l160 132l135 -116v669h-111v94h111v55q0 66 19 118t55 89t88 56.5t118 19.5q54 0 108.5 -19t107.5 -50z" />
    <glyph glyph-name="guillemotleft" unicode="&#xab;" horiz-adv-x="581" 
d="M531 229l-68 -68l-186 183l186 183l68 -67l-117 -116zM304 229l-68 -68l-186 183l186 183l68 -67l-117 -116z" />
    <glyph glyph-name="guillemotright" unicode="&#xbb;" horiz-adv-x="581" 
d="M531 344l-186 -183l-68 67l117 116l-117 115l68 68zM304 344l-186 -183l-68 67l117 116l-117 115l68 68z" />
    <glyph glyph-name="nonbreakingspace" unicode="&#xa0;" horiz-adv-x="250" 
 />
    <glyph glyph-name="Agrave" unicode="&#xc0;" horiz-adv-x="870" 
d="M870 0h-382l85 111l-51 107h-278l-51 -107l83 -111h-276l85 111l350 736l350 -735zM476 315l-93 195l-93 -195h186zM579 957l-34 -69l-251 113l34 70l251 -114v0z" />
    <glyph glyph-name="Atilde" unicode="&#xc3;" horiz-adv-x="870" 
d="M870 0h-382l85 111l-51 107h-278l-51 -107l83 -111h-276l85 111l350 736l350 -735zM476 315l-93 195l-93 -195h186zM616 951q-12 -11 -24 -22.5t-25.5 -20.5t-28.5 -15t-33 -6q-23 0 -42 9t-34.5 20t-28 20t-23.5 9q-5 0 -12.5 -6t-16 -14t-15.5 -15.5t-10 -11.5l-56 50
l24 24t25 22t28 16.5t34 6.5q23 0 41 -9t33 -19.5t28 -19.5t26 -9q5 0 13 5t16 12t15 14t11 10l55 -50v0z" />
    <glyph glyph-name="Otilde" unicode="&#xd5;" horiz-adv-x="889" 
d="M834 401q0 -89 -30.5 -164.5t-83 -131t-123.5 -87t-152 -31.5t-152.5 29.5t-124 82.5t-83 127t-30.5 163t30.5 166.5t83 134.5t123.5 90t153 33q81 0 152 -31t123.5 -86t83 -130.5t30.5 -164.5zM650 275q0 79 -25.5 154t-74 133.5t-119 94.5t-159.5 36q-34 -81 -34 -172
q0 -79 25.5 -154.5t74 -134.5t118.5 -95t160 -36q34 85 34 174zM617 951q-12 -11 -24 -22.5t-25.5 -20.5t-28.5 -15t-33 -6q-23 0 -42 9t-34.5 20t-28 20t-23.5 9q-5 0 -12.5 -6t-16 -14t-15.5 -15.5t-10 -11.5l-56 50l24 24t25 22t28 16.5t34 6.5q23 0 41 -9t33 -19.5
t28 -19.5t26 -9q5 0 13 5t16 12t15 14t11 10l55 -50v0z" />
    <glyph glyph-name="OE" unicode="&#x152;" horiz-adv-x="1244" 
d="M645 0l84 111v5q-54 -60 -126.5 -94.5t-157.5 -34.5q-81 0 -152.5 29.5t-124 82.5t-83 127t-30.5 163t30.5 166.5t83 134.5t123.5 90t153 33q85 0 157.5 -34.5t126.5 -94.5v5l-84 111h549v-194l-268 125v-252h199v-176l-199 107v-341l268 125v-194h-549zM650 275
q0 79 -25.5 154t-74 133.5t-119 94.5t-159.5 36q-34 -81 -34 -172q0 -79 25.5 -154.5t74 -134.5t118.5 -95t160 -36q34 85 34 174z" />
    <glyph glyph-name="oe" unicode="&#x153;" horiz-adv-x="1026" 
d="M698 166q86 -81 214 -107q-41 -35 -88 -53.5t-101 -18.5q-57 0 -107 21t-88 58q-37 -37 -87 -58t-108 -21q-59 0 -109.5 22t-88 60t-59 89t-21.5 109t21.5 109t59 89t88 60t109.5 22q58 0 108 -21t87 -58q38 37 88 58t107 21q42 0 88.5 -18.5t85.5 -54.5t64 -89t25 -121z
M795 248q0 66 -26.5 107t-60.5 64t-64.5 31.5t-39.5 10.5q-8 -38 -8 -68v-34.5t5 -34.5zM462 140q0 55 -20 104.5t-54.5 91.5t-80 73.5t-97.5 50.5q-8 -35 -8 -67q0 -55 20 -104.5t54 -91t80 -73t98 -50.5q8 35 8 66z" />
    <glyph glyph-name="endash" unicode="&#x2013;" horiz-adv-x="643" 
d="M570 252h-500v91h500v-91v0z" />
    <glyph glyph-name="emdash" unicode="&#x2014;" horiz-adv-x="1143" 
d="M1070 252h-1000v91h1000v-91v0z" />
    <glyph glyph-name="quotedblleft" unicode="&#x201c;" horiz-adv-x="590" 
d="M560 740l-136 -255l-152 112l136 255zM288 740l-136 -255l-152 112l136 255z" />
    <glyph glyph-name="quotedblright" unicode="&#x201d;" horiz-adv-x="560" 
d="M560 740l-136 -255l-152 112l136 255zM288 740l-136 -255l-152 112l136 255z" />
    <glyph glyph-name="quoteleft" unicode="&#x2018;" horiz-adv-x="318" 
d="M288 740l-136 -255l-152 112l136 255l152 -112v0z" />
    <glyph glyph-name="quoteright" unicode="&#x2019;" horiz-adv-x="288" 
d="M288 740l-136 -255l-152 112l136 255l152 -112v0z" />
    <glyph glyph-name="divide" unicode="&#xf7;" horiz-adv-x="472" 
d="M283 427h-95v86h95v-86zM405 296h-338v96h338v-96zM283 175h-95v86h95v-86z" />
    <glyph glyph-name="ydieresis" unicode="&#xff;" horiz-adv-x="639" 
d="M629 510l-308 -699l93 -110h-247l104 233l-184 413l-77 66l192 148l174 -388l100 227l-93 110h246v0zM516 697h-137v103h137v-103zM283 697h-137v103h137v-103z" />
    <glyph glyph-name="Ydieresis" unicode="&#x178;" horiz-adv-x="787" 
d="M777 800l-270 -453v-236l85 -111h-370l84 111v209l-204 334l-82 75l193 116l241 -396l143 241l-84 110h264v0zM598 899h-137v103h137v-103zM365 899h-137v103h137v-103z" />
    <glyph glyph-name="fraction" unicode="&#x2044;" horiz-adv-x="594" 
d="M594 762l-507 -776l-67 48l507 776l67 -48v0z" />
    <glyph glyph-name="guilsinglleft" unicode="&#x2039;" horiz-adv-x="354" 
d="M304 229l-68 -68l-186 183l186 183l68 -67l-117 -116l117 -115v0z" />
    <glyph glyph-name="guilsinglright" unicode="&#x203a;" horiz-adv-x="354" 
d="M304 344l-186 -183l-68 67l117 116l-117 115l68 68l186 -183v0z" />
    <glyph glyph-name="fi" unicode="&#xfb01;" horiz-adv-x="918" 
d="M605 595l-253 169v-254h111v-94h-111v-305l85 -111h-370l84 111v305h-111v94h111v56q0 77 23 130.5t62 87.5t90.5 49t108.5 15q48 0 98.5 -10t98.5 -27.5t92 -42t79 -54.5zM528 0l84 111v230l-64 65l265 157v-452l85 -111h-370z" />
    <glyph glyph-name="fl" unicode="&#xfb02;" horiz-adv-x="918" 
d="M528 0l84 111v479l-260 174v-254h111v-94h-111v-305l85 -111h-370l84 111v305h-111v94h111v56q0 65 18.5 117.5t54.5 89t88 56t119 19.5q74 0 140 -19.5t117 -44t84 -47t41 -29.5v-597l85 -111h-370z" />
    <glyph glyph-name="daggerdbl" unicode="&#x2021;" horiz-adv-x="435" 
d="M415 47l-169 84l81 -171h-221l81 171l-167 -84v219l166 -85l-79 135l79 135l-166 -85v219l167 -84l-81 171h221l-81 -171l169 84v-219l-167 86l78 -136l-78 -136l167 86v-219v0z" />
    <glyph glyph-name="periodcentered" unicode="&#xb7;" horiz-adv-x="381" 
d="M291 315h-201v195h201v-195v0z" />
    <glyph glyph-name="quotesinglbase" unicode="&#x201a;" horiz-adv-x="338" 
d="M288 95l-136 -255l-152 112l136 255l152 -112v0z" />
    <glyph glyph-name="quotedblbase" unicode="&#x201e;" horiz-adv-x="610" 
d="M560 95l-136 -255l-152 112l136 255zM288 95l-136 -255l-152 112l136 255z" />
    <glyph glyph-name="perthousand" unicode="&#x2030;" horiz-adv-x="1293" 
d="M1238 195q0 -42 -14 -79.5t-38 -66t-57 -45.5t-72 -17t-72 17t-57 45.5t-38 66t-14 79.5t14 79.5t38 66t57 45.5t72 17t72 -17t57 -45.5t38 -66t14 -79.5zM417 605q0 -42 -14 -80t-38 -66.5t-57 -45.5t-72 -17t-72 17t-57 45.5t-38 66.5t-14 80t14 79.5t38 66t57 45
t72 16.5t72 -16.5t57 -45t38 -66t14 -79.5zM823 195q0 -42 -14 -79.5t-38 -66t-57 -45.5t-72 -17t-72 17t-57 45.5t-38 66t-14 79.5t14 79.5t38 66t57 45.5t72 17t72 -17t57 -45.5t38 -66t14 -79.5zM216 -14l-68 48l508 776l67 -48zM1134 126q0 35 -9 70t-26 63.5t-42.5 47
t-59.5 20.5q-12 -38 -12 -82q0 -35 8 -67.5t25 -58t43.5 -41.5t63.5 -17q9 28 9 65zM313 536q0 35 -9 70t-26 63.5t-42.5 46.5t-59.5 20q-5 -18 -8.5 -38.5t-3.5 -43.5q0 -34 8 -66.5t25 -58t43.5 -42t63.5 -17.5q9 28 9 66zM719 126q0 35 -9 70t-26 63.5t-42.5 47
t-59.5 20.5q-12 -38 -12 -82q0 -35 8 -67.5t25 -58t43.5 -41.5t63.5 -17q9 28 9 65z" />
    <glyph glyph-name="Acircumflex" unicode="&#xc2;" horiz-adv-x="870" 
d="M870 0h-382l85 111l-51 107h-278l-51 -107l83 -111h-276l85 111l350 736l350 -735zM476 315l-93 195l-93 -195h186zM571 954l-38 -67l-121 65l-121 -65l-38 67l159 84l159 -84v0z" />
    <glyph glyph-name="Ecircumflex" unicode="&#xca;" horiz-adv-x="633" 
d="M583 0h-553l84 111v578l-84 111h553v-194l-268 125v-252h199v-176l-199 107v-341l268 125v-194v0zM475 954l-38 -67l-121 65l-121 -65l-38 67l159 84l159 -84v0z" />
    <glyph glyph-name="Aacute" unicode="&#xc1;" horiz-adv-x="870" 
d="M870 0h-382l85 111l-51 107h-278l-51 -107l83 -111h-276l85 111l350 736l350 -735zM476 315l-93 195l-93 -195h186zM548 999l-251 -113l-34 69l251 114l34 -70v0z" />
    <glyph glyph-name="Edieresis" unicode="&#xcb;" horiz-adv-x="633" 
d="M583 0h-553l84 111v578l-84 111h553v-194l-268 125v-252h199v-176l-199 107v-341l268 125v-194v0zM491 899h-137v103h137v-103zM258 899h-137v103h137v-103z" />
    <glyph glyph-name="Egrave" unicode="&#xc8;" horiz-adv-x="633" 
d="M583 0h-553l84 111v578l-84 111h553v-194l-268 125v-252h199v-176l-199 107v-341l268 125v-194v0zM453 957l-34 -69l-251 113l34 70l251 -114v0z" />
    <glyph glyph-name="Iacute" unicode="&#xcd;" horiz-adv-x="430" 
d="M400 0h-370l84 111v578l-84 111h370l-85 -111v-578l85 -111v0zM341 999l-251 -113l-34 69l251 114l34 -70v0z" />
    <glyph glyph-name="Icircumflex" unicode="&#xce;" horiz-adv-x="430" 
d="M400 0h-370l84 111v578l-84 111h370l-85 -111v-578l85 -111v0zM375 954l-38 -67l-121 65l-121 -65l-38 67l159 84l159 -84v0z" />
    <glyph glyph-name="Idieresis" unicode="&#xcf;" horiz-adv-x="430" 
d="M400 0h-370l84 111v578l-84 111h370l-85 -111v-578l85 -111v0zM401 898h-137v103h137v-103zM168 898h-137v103h137v-103z" />
    <glyph glyph-name="Igrave" unicode="&#xcc;" horiz-adv-x="430" 
d="M400 0h-370l84 111v578l-84 111h370l-85 -111v-578l85 -111v0zM345 957l-34 -69l-251 113l34 70l251 -114v0z" />
    <glyph glyph-name="Oacute" unicode="&#xd3;" horiz-adv-x="889" 
d="M834 401q0 -89 -30.5 -164.5t-83 -131t-123.5 -87t-152 -31.5t-152.5 29.5t-124 82.5t-83 127t-30.5 163t30.5 166.5t83 134.5t123.5 90t153 33q81 0 152 -31t123.5 -86t83 -130.5t30.5 -164.5zM650 275q0 79 -25.5 154t-74 133.5t-119 94.5t-159.5 36q-34 -81 -34 -172
q0 -79 25.5 -154.5t74 -134.5t118.5 -95t160 -36q34 85 34 174zM563 999l-251 -113l-34 69l251 114l34 -70v0z" />
    <glyph glyph-name="Ocircumflex" unicode="&#xd4;" horiz-adv-x="889" 
d="M834 401q0 -89 -30.5 -164.5t-83 -131t-123.5 -87t-152 -31.5t-152.5 29.5t-124 82.5t-83 127t-30.5 163t30.5 166.5t83 134.5t123.5 90t153 33q81 0 152 -31t123.5 -86t83 -130.5t30.5 -164.5zM650 275q0 79 -25.5 154t-74 133.5t-119 94.5t-159.5 36q-34 -81 -34 -172
q0 -79 25.5 -154.5t74 -134.5t118.5 -95t160 -36q34 85 34 174zM604 954l-38 -67l-121 65l-121 -65l-38 67l159 84l159 -84v0z" />
    <glyph glyph-name="Ograve" unicode="&#xd2;" horiz-adv-x="889" 
d="M834 401q0 -89 -30.5 -164.5t-83 -131t-123.5 -87t-152 -31.5t-152.5 29.5t-124 82.5t-83 127t-30.5 163t30.5 166.5t83 134.5t123.5 90t153 33q81 0 152 -31t123.5 -86t83 -130.5t30.5 -164.5zM650 275q0 79 -25.5 154t-74 133.5t-119 94.5t-159.5 36q-34 -81 -34 -172
q0 -79 25.5 -154.5t74 -134.5t118.5 -95t160 -36q34 85 34 174zM579 957l-34 -69l-251 113l34 70l251 -114v0z" />
    <glyph glyph-name="Uacute" unicode="&#xda;" horiz-adv-x="846" 
d="M731 689v-398q0 -63 -23.5 -118.5t-65 -96.5t-97.5 -65t-122 -24t-122.5 24t-98 65.5t-65 97t-23.5 118.5v397l-84 111h370l-85 -111v-394q0 -45 15 -84t41.5 -68t63.5 -46t82 -17h13v609l-84 111h370zM548 999l-251 -113l-34 69l251 114l34 -70v0z" />
    <glyph glyph-name="Ucircumflex" unicode="&#xdb;" horiz-adv-x="846" 
d="M731 689v-398q0 -63 -23.5 -118.5t-65 -96.5t-97.5 -65t-122 -24t-122.5 24t-98 65.5t-65 97t-23.5 118.5v397l-84 111h370l-85 -111v-394q0 -45 15 -84t41.5 -68t63.5 -46t82 -17h13v609l-84 111h370zM580 954l-38 -67l-121 65l-121 -65l-38 67l159 84l159 -84v0z" />
    <glyph glyph-name="Ugrave" unicode="&#xd9;" horiz-adv-x="846" 
d="M731 689v-398q0 -63 -23.5 -118.5t-65 -96.5t-97.5 -65t-122 -24t-122.5 24t-98 65.5t-65 97t-23.5 118.5v397l-84 111h370l-85 -111v-394q0 -45 15 -84t41.5 -68t63.5 -46t82 -17h13v609l-84 111h370zM545 957l-34 -69l-251 113l34 70l251 -114v0z" />
    <glyph glyph-name="dotlessi" unicode="&#x131;" 
d="M390 0h-370l84 111v230l-64 65l265 157v-452l85 -111v0z" />
    <glyph glyph-name="circumflex" unicode="&#x2c6;" horiz-adv-x="661" 
d="M489 764l-38 -67l-121 65l-121 -65l-38 67l159 84l159 -84v0z" />
    <glyph glyph-name="tilde" unicode="&#x2dc;" horiz-adv-x="600" 
d="M472 773q-12 -11 -24 -22.5t-25.5 -20.5t-28.5 -15t-33 -6q-23 0 -42 9t-34.5 20t-28 20t-23.5 9q-5 0 -12.5 -6t-16 -14t-15.5 -15.5t-10 -11.5l-56 50l24 24t25 22t28 16.5t34 6.5q23 0 41 -9t33 -19.5t28 -19.5t26 -9q5 0 13 5t16 12t15 14t11 10l55 -50v0z" />
    <glyph glyph-name="macron" unicode="&#xaf;" horiz-adv-x="661" 
d="M484 726h-307v74h307v-74v0z" />
    <glyph glyph-name="breve" unicode="&#x2d8;" horiz-adv-x="661" 
d="M490 788q-19 -13 -37 -25t-37 -21.5t-40 -15t-46 -5.5t-46 5.5t-40 15t-37 21.5t-37 25l48 59q29 -21 56 -36t56 -15q32 0 59.5 17t51.5 34l49 -59v0z" />
    <glyph glyph-name="dotaccent" unicode="&#x2d9;" horiz-adv-x="550" 
d="M346 669h-137v131h137v-131v0z" />
    <glyph glyph-name="ring" unicode="&#x2da;" horiz-adv-x="661" 
d="M448 733q0 -24 -9.5 -45t-25.5 -36.5t-37.5 -24.5t-45.5 -9t-45.5 9t-37.5 24.5t-25.5 36.5t-9.5 45t9.5 44.5t25.5 36.5t37.5 25t45.5 9t45.5 -9t37.5 -25t25.5 -36.5t9.5 -44.5zM394 733q0 26 -19 44t-45 18t-45 -18t-19 -44t19 -44.5t45 -18.5t45 18.5t19 44.5z" />
    <glyph glyph-name="cedilla" unicode="&#xb8;" horiz-adv-x="609" 
d="M335 -211q-32 10 -67 20t-69.5 17.5t-67.5 12.5t-60 5l217 174l100 -19l-58 -45q43 -6 90.5 -21.5t87.5 -46.5z" />
    <glyph glyph-name="hungarumlaut" unicode="&#x2dd;" horiz-adv-x="662" 
d="M305 792l-105 -95l-50 55l106 95zM512 792l-105 -95l-50 55l105 95z" />
    <glyph glyph-name="ogonek" unicode="&#x2db;" horiz-adv-x="609" 
d="M596 -156q-28 0 -61 -5t-67.5 -12.5t-69.5 -17.5t-67 -20l-173 97q40 31 87.5 46.5t90.5 21.5l-57 45l99 19l218 -174v0z" />
    <glyph glyph-name="caron" unicode="&#x2c7;" horiz-adv-x="600" 
d="M459 777l-159 -85l-159 85l38 67l121 -65l121 65l38 -67v0z" />
    <glyph glyph-name="Eth" unicode="&#xd0;" horiz-adv-x="797" 
d="M742 384q0 -73 -25 -142t-75 -123t-125 -86.5t-175 -32.5h-312l84 111v91l-65 -37v210l65 38v276l-84 111h302q98 0 174.5 -36.5t129 -95.5t79.5 -133.5t27 -150.5zM561 314q0 59 -16 114.5t-47.5 102t-77 81t-105.5 52.5v-135l65 37v-210l-65 -38v-139l192 -80
q28 52 41 106.5t13 108.5z" />
    <glyph glyph-name="eth" unicode="&#xf0;" horiz-adv-x="697" 
d="M667 391q0 -71 -23 -143t-66 -130t-106 -94.5t-142 -36.5q-57 0 -107 20t-87.5 54t-59 80t-21.5 98t21.5 98.5t59 80.5t87.5 54t107 20q51 0 95 -15q-35 60 -86 103l-189 -109v207q-29 7 -60.5 11t-69.5 4q73 65 137.5 93t131.5 28q79 0 148 -33t120 -90t80.5 -134
t29.5 -166zM461 138q0 50 -20 91t-54 74t-80 58t-98 44q-8 -35 -8 -65q0 -50 20 -90.5t54 -73.5t80 -58t98 -44q4 17 6 33t2 31z" />
    <glyph glyph-name="Lslash" unicode="&#x141;" horiz-adv-x="623" 
d="M583 0h-553l84 111v91l-65 -37v210l65 38v276l-84 111h370l-85 -111v-160l65 37v-210l-65 -38v-249l268 125v-194v0z" />
    </font>
</defs>
</svg>
